<svg height="512pt" viewBox="0 0 512 511" width="512pt" xmlns="http://www.w3.org/2000/svg"><g fill="#edd4c2"><path d="m472 472.300781h-31v-18h13v-13h18zm0 0"/><path d="m358.777344 454.300781h41.113281v18h-41.113281zm0 0"/><path d="m276.554688 454.300781h41.109374v18h-41.109374zm0 0"/><path d="m194.335938 454.300781h41.109374v18h-41.109374zm0 0"/><path d="m112.113281 454.300781h41.109375v18h-41.109375zm0 0"/><path d="m71 472.300781h-31v-31h18v13h13zm0 0"/><path d="m40 359.078125h18v41.113281h-18zm0 0"/><path d="m40 276.855469h18v41.109375h-18zm0 0"/><path d="m40 194.632812h18v41.113282h-18zm0 0"/><path d="m40 112.410156h18v41.113282h-18zm0 0"/><path d="m58 71.300781h-18v-31h31v18h-13zm0 0"/><path d="m358.777344 40.300781h41.113281v18h-41.113281zm0 0"/><path d="m276.554688 40.300781h41.109374v18h-41.109374zm0 0"/><path d="m194.335938 40.300781h41.109374v18h-41.109374zm0 0"/><path d="m112.113281 40.300781h41.109375v18h-41.109375zm0 0"/><path d="m472 71.300781h-18v-13h-13v-18h31zm0 0"/><path d="m454 359.078125h18v41.109375h-18zm0 0"/><path d="m454 276.855469h18v41.113281h-18zm0 0"/><path d="m454 194.632812h18v41.109376h-18zm0 0"/><path d="m454 112.410156h18v41.113282h-18zm0 0"/></g><path d="m325.199219 248.199219c-10.300781-10.300781-23.980469-15.960938-38.539063-15.960938-2.761718 0-5.460937.203125-8.140625.601563-1.558593 11.28125-6.679687 22.179687-15.339843 30.839844-8.359376 8.359374-19 13.679687-30.5 15.320312-2.578126.398438-5.199219.578125-7.859376.578125-14.5 0-28.121093-5.65625-38.359374-15.898437l-9.601563-9.601563-100.960937-100.957031c-10.257813-10.242188-15.898438-23.882813-15.898438-38.359375 0-14.5 5.640625-28.121094 15.898438-38.382813 10.242187-10.238281 23.863281-15.878906 38.363281-15.878906s28.117187 5.640625 38.359375 15.878906l100.777344 100.78125c10.820312-3.28125 22.042968-4.921875 33.261718-4.921875 14.761719 0 29.519532 2.839844 43.398438 8.5-5.558594-13.160156-13.71875-25.5-24.4375-36.21875l-110.5625-110.558593c-22.320313-22.320313-51.558594-33.460938-80.796875-33.460938-29.242188 0-58.480469 11.140625-80.800781 33.460938-22.300782 22.300781-33.460938 51.539062-33.460938 80.777343 0 29.242188 11.160156 58.480469 33.460938 80.800781l110.558593 110.5625c10.921875 10.917969 23.5 19.160157 36.902344 24.738282 14.019531 5.820312 28.957031 8.738281 43.898437 8.738281 11.039063 0 22.078126-1.597656 32.757813-4.777344 17.582031-5.242187 34.140625-14.800781 48.042969-28.699219 14.039062-14.042968 23.660156-30.820312 28.859375-48.621093zm0 0" fill="#69ebfc"/><path d="m325.199219 248.199219c-10.300781-10.300781-23.980469-15.960938-38.539063-15.960938-2.761718 0-5.460937.203125-8.140625.601563-1.558593 11.28125-6.679687 22.179687-15.339843 30.839844-8.359376 8.359374-19 13.679687-30.5 15.320312-2.578126.398438-5.199219.578125-7.859376.578125-14.5 0-28.121093-5.65625-38.359374-15.898437l-9.601563-9.601563-100.960937-100.957031c-10.257813-10.242188-15.898438-23.882813-15.898438-38.359375 0-14.5 5.640625-28.121094 15.898438-38.382813 10.242187-10.238281 23.863281-15.878906 38.363281-15.878906s28.117187 5.640625 38.359375 15.878906l100.777344 100.78125c10.820312-3.28125 22.042968-4.921875 33.261718-4.921875 14.761719 0 29.519532 2.839844 43.398438 8.5-5.558594-13.160156-13.71875-25.5-24.4375-36.21875l-110.5625-110.558593c-22.320313-22.320313-51.558594-33.460938-80.796875-33.460938-29.242188 0-58.480469 11.140625-80.800781 33.460938-22.300782 22.300781-33.460938 51.539062-33.460938 80.777343 0 29.242188 11.160156 58.480469 33.460938 80.800781l110.558593 110.5625c10.921875 10.917969 23.5 19.160157 36.902344 24.738282 14.019531 5.820312 28.957031 8.738281 43.898437 8.738281 11.039063 0 22.078126-1.597656 32.757813-4.777344 17.582031-5.242187 34.140625-14.800781 48.042969-28.699219 14.039062-14.042968 23.660156-30.820312 28.859375-48.621093zm0 0" fill="#69ebfc"/><path d="m478.460938 316.601562-110.820313-110.820312c-11.101563-11.101562-23.921875-19.441406-37.582031-25.042969 6.019531 14.203125 9.019531 29.382813 9.019531 44.5625 0 10.839844-1.539063 21.679688-4.597656 32.179688l101.539062 101.539062c21.261719 21.261719 21.261719 55.859375 0 77.121094-10.300781 10.300781-23.980469 15.980469-38.539062 15.980469-14.582031 0-28.261719-5.679688-38.558594-15.980469l-101.34375-101.339844-9.476563-9.480469c-10.300781-10.300781-15.980468-23.980468-15.980468-38.558593 0-2.621094.179687-5.222657.558594-7.761719 1.640624-11.621094 6.980468-22.359375 15.421874-30.800781 8.359376-8.359375 18.9375-13.660157 30.417969-15.359375 2.28125-16.28125-2.839843-33.398438-15.339843-45.898438l-9.78125-9.78125c-17.476563 5.28125-33.9375 14.820313-47.738282 28.621094-13.960937 13.957031-23.558594 30.617188-28.800781 48.296875-3.160156 10.640625-4.738281 21.660156-4.738281 32.683594 0 15 2.9375 30 8.800781 44.078125 5.578125 13.421875 13.816406 25.980468 24.738281 36.898437l110.820313 110.820313c22.359375 22.382812 51.679687 33.5625 81 33.5625 29.300781 0 58.621093-11.179688 80.980469-33.5625 22.359374-22.359375 33.539062-51.660156 33.539062-80.980469 0-29.316406-11.179688-58.617187-33.539062-80.976563zm0 0" fill="#6770e6"/><path d="m478.460938 458.558594c-22.359376 22.382812-51.679688 33.5625-80.980469 33.5625-29.320313 0-58.640625-11.179688-81-33.5625l-110.820313-110.820313c-10.921875-10.917969-19.160156-23.476562-24.738281-36.898437-4.5625-10.960938-7.332031-22.480469-8.347656-34.125-.289063 3.34375-.453125 6.691406-.453125 10.046875 0 15 2.9375 30 8.800781 44.078125 5.578125 13.421875 13.816406 25.980468 24.738281 36.898437l110.820313 110.820313c22.359375 22.382812 51.679687 33.5625 81 33.5625 29.300781 0 58.621093-11.179688 80.980469-33.5625 22.359374-22.359375 33.539062-51.660156 33.539062-80.980469 0-3.335937-.164062-6.671875-.453125-10-2.253906 25.902344-13.273437 51.167969-33.085937 70.980469zm0 0" fill="#5861c7"/><path d="m339.078125 225.300781c0 10.839844-1.539063 21.679688-4.597656 32.179688l-9.28125-9.28125c-10.300781-10.300781-23.980469-15.960938-38.539063-15.960938-2.761718 0-5.460937.203125-8.140625.601563 2.28125-16.28125-2.839843-33.398438-15.339843-45.898438l-9.78125-9.78125c10.820312-3.28125 22.042968-4.921875 33.261718-4.921875 14.761719 0 29.519532 2.839844 43.398438 8.5 6.019531 14.203125 9.019531 29.382813 9.019531 44.5625zm0 0" fill="#69ebfc"/><path d="m33.460938 53.960938c22.320312-22.320313 51.558593-33.460938 80.800781-33.460938 29.238281 0 58.476562 11.140625 80.796875 33.460938l110.5625 110.558593c10.71875 10.71875 18.878906 23.058594 24.4375 36.21875 4.703125 11.089844 7.535156 22.78125 8.5625 34.597657.292968-3.339844.457031-6.6875.457031-10.035157 0-15.179687-3-30.359375-9.019531-44.5625-5.558594-13.160156-13.71875-25.5-24.4375-36.21875l-110.5625-110.558593c-22.320313-22.320313-51.558594-33.460938-80.796875-33.460938-29.242188 0-58.480469 11.140625-80.800781 33.460938-22.300782 22.300781-33.460938 51.539062-33.460938 80.777343 0 3.339844.164062 6.675781.453125 10 2.257813-25.820312 13.253906-51.023437 33.007813-70.777343zm0 0" fill="#a1f1fc"/></svg>